<svg xmlns="http://www.w3.org/2000/svg" version="1.1" xmlns:xlink="http://www.w3.org/1999/xlink" xmlns:svgjs="http://svgjs.dev/svgjs" width="1000" height="313" viewBox="0 0 1000 313"><g transform="matrix(1,0,0,1,-0.6060459911548719,-0.4009439184125654)"><svg viewBox="0 0 396 124" data-background-color="#ffffff" preserveAspectRatio="xMidYMid meet" height="313" width="1000" xmlns="http://www.w3.org/2000/svg" xmlns:xlink="http://www.w3.org/1999/xlink"><g id="tight-bounds" transform="matrix(1,0,0,1,0.23999421249732222,0.1588404021826193)"><svg viewBox="0 0 395.52 123.68231919563476" height="123.68231919563476" width="395.52"><g><svg viewBox="0 0 605.7670423775172 189.4282784524972" height="123.68231919563476" width="395.52"><g transform="matrix(1,0,0,1,210.2470423775172,26.18002980059839)"><svg viewBox="0 0 395.52 137.06821885130043" height="137.06821885130043" width="395.52"><g><svg viewBox="0 0 395.52 137.06821885130043" height="137.06821885130043" width="395.52"><g><svg viewBox="0 0 395.52 88.18670226969293" height="88.18670226969293" width="395.52"><g transform="matrix(1,0,0,1,0,0)"><svg width="395.52" viewBox="1.5 -32.79999923706055 149.7899932861328 33.39999771118164" height="88.18670226969293" data-palette-color="#001f3f"><path d="M1.5 0.5L1.9-3.4Q3.8-3.7 4.5-4.63 5.2-5.55 5.2-7.75L5.2-7.75 5.2-25.9Q5.2-27.45 4.85-27.98 4.5-28.5 3.4-28.5L3.4-28.5Q2.95-28.5 2.55-28.45 2.15-28.4 2-28.4L2-28.4 1.65-28.95 2.05-32.25 9.35-32.2Q10.8-32.2 13.98-32.33 17.15-32.45 18.2-32.5L18.2-32.5 17.75-28.4Q16-28.2 15.18-27.9 14.35-27.6 14.05-27 13.75-26.4 13.65-25.2L13.65-25.2Q13.15-18 13.15-7.35L13.15-7.35Q13.15-5.75 13.65-5.23 14.15-4.7 15.7-4.7L15.7-4.7Q17.9-4.7 19-5.3 20.1-5.9 20.63-7.53 21.15-9.15 21.45-12.5L21.45-12.5 26.6-13.05 27.05-12.45Q26.9-11.45 26.5-7.83 26.1-4.2 25.8-0.25L25.8-0.25 25.2 0.4Q23.85 0.35 19.38 0.18 14.9 0 10.85 0L10.85 0Q7.9 0 5.1 0.2 2.3 0.4 1.5 0.5L1.5 0.5ZM42.8 0.6Q35.9 0.6 32.07-3.6 28.25-7.8 28.25-15.35L28.25-15.35Q28.25-20.75 30.2-24.68 32.15-28.6 35.85-30.7 39.55-32.8 44.6-32.8L44.6-32.8Q51.7-32.8 55.5-28.7 59.3-24.6 59.3-17L59.3-17Q59.3-11.6 57.3-7.63 55.3-3.65 51.57-1.53 47.85 0.6 42.8 0.6L42.8 0.6ZM43.95-4.55Q46.9-4.55 48.42-6.98 49.95-9.4 49.95-14.2L49.95-14.2Q49.95-20.8 48.32-23.95 46.7-27.1 43.35-27.1L43.35-27.1Q37.5-27.1 37.5-17.55L37.5-17.55Q37.5-10.95 39.12-7.75 40.75-4.55 43.95-4.55L43.95-4.55ZM65.25 0.35L65.65-3.5Q67.85-3.7 68.85-4.1 69.85-4.5 70.22-5.43 70.6-6.35 70.6-8.3L70.6-8.3 70.6-27.4Q68.4-27.35 67.45-26.9 66.5-26.45 66.07-25.18 65.65-23.9 65.35-20.75L65.35-20.75 60.35-20.4Q60.75-26.25 60.85-32.15L60.85-32.15 61.45-32.75 66.85-32.2 82.45-32.2 88-32.75 88.55-32.15Q88.75-24.4 88.95-20.75L88.95-20.75 83.95-20.4Q83.6-23.85 83.22-25.18 82.85-26.5 81.97-26.93 81.1-27.35 78.95-27.4L78.95-27.4Q78.55-17.4 78.55-7.25L78.55-7.25Q78.55-5.4 79.17-4.63 79.8-3.85 81.25-3.85L81.25-3.85Q82.3-3.85 83.85-4L83.85-4 84.05-3.7 83.6 0.25Q76.25 0 74.3 0L74.3 0Q70.85 0 65.25 0.35L65.25 0.35ZM95.39 0.35L95.79-3.5Q97.99-3.7 98.99-4.1 99.99-4.5 100.37-5.43 100.74-6.35 100.74-8.3L100.74-8.3 100.74-27.4Q98.54-27.35 97.59-26.9 96.64-26.45 96.22-25.18 95.79-23.9 95.49-20.75L95.49-20.75 90.49-20.4Q90.89-26.25 90.99-32.15L90.99-32.15 91.59-32.75 96.99-32.2 112.59-32.2 118.14-32.75 118.69-32.15Q118.89-24.4 119.09-20.75L119.09-20.75 114.09-20.4Q113.74-23.85 113.37-25.18 112.99-26.5 112.12-26.93 111.24-27.35 109.09-27.4L109.09-27.4Q108.69-17.4 108.69-7.25L108.69-7.25Q108.69-5.4 109.32-4.63 109.94-3.85 111.39-3.85L111.39-3.85Q112.44-3.85 113.99-4L113.99-4 114.19-3.7 113.74 0.25Q106.39 0 104.44 0L104.44 0Q100.99 0 95.39 0.35L95.39 0.35ZM134.79 0.6Q127.89 0.6 124.07-3.6 120.24-7.8 120.24-15.35L120.24-15.35Q120.24-20.75 122.19-24.68 124.14-28.6 127.84-30.7 131.54-32.8 136.59-32.8L136.59-32.8Q143.69-32.8 147.49-28.7 151.29-24.6 151.29-17L151.29-17Q151.29-11.6 149.29-7.63 147.29-3.65 143.57-1.53 139.84 0.6 134.79 0.6L134.79 0.6ZM135.94-4.55Q138.89-4.55 140.42-6.98 141.94-9.4 141.94-14.2L141.94-14.2Q141.94-20.8 140.32-23.95 138.69-27.1 135.34-27.1L135.34-27.1Q129.49-27.1 129.49-17.55L129.49-17.55Q129.49-10.95 131.12-7.75 132.74-4.55 135.94-4.55L135.94-4.55Z" opacity="1" transform="matrix(1,0,0,1,0,0)" fill="#001f3f" class="undefined-text-0" data-fill-palette-color="primary" id="text-0"></path></svg></g></svg></g><g transform="matrix(1,0,0,1,75.54432000000001,109.00546619471297)"><svg viewBox="0 0 244.43135999999996 28.06275265658747" height="28.06275265658747" width="244.43135999999996"><g transform="matrix(1,0,0,1,0,0)"><svg width="244.43135999999996" viewBox="2.6100001335144043 -39.84000015258789 361.69000244140625 41.52000045776367" height="28.06275265658747" data-palette-color="#001f3f"><path d="M2.91-32.52L2.91-32.52Q3.05-32.62 3.41-32.78 3.76-32.93 4.24-33.13 4.71-33.33 5.26-33.56 5.81-33.79 6.37-34.01L6.37-34.01 9.2-35.13Q9.52-35.28 9.79-35.28L9.79-35.28Q9.99-35.28 10.22-35.17 10.45-35.06 10.74-34.77L10.74-34.77 16.38-23.83 16.53-24.19 18.95-28.66Q19.41-29.49 19.86-30.3 20.31-31.1 20.67-31.74 21.02-32.37 21.26-32.76 21.51-33.15 21.56-33.15L21.56-33.15 29.93-35.25Q30.22-35.33 30.42-35.33L30.42-35.33Q30.98-35.33 30.98-34.81L30.98-34.81Q30.96-34.69 30.93-34.48 30.91-34.28 30.79-34.03L30.79-34.03 23.61-20.73Q23.07-19.73 22.52-18.73 21.97-17.72 21.46-16.83 20.95-15.94 20.54-15.21 20.14-14.48 19.9-14.01L19.9-14.01 19.73-13.21 18.36-4.05Q18.29-3.64 18.24-3.37 18.19-3.1 18.1-2.93 18.02-2.76 17.88-2.64 17.75-2.51 17.5-2.39L17.5-2.39 10.57 1.25Q10.18 1.44 9.75 1.56 9.33 1.68 8.94 1.68L8.94 1.68Q8.52 1.68 8.23 1.5 7.93 1.32 7.93 0.9L7.93 0.9 7.93 0.81Q8.03-0.59 8.29-2.43 8.54-4.27 8.84-6.03L8.84-6.03 10.21-15.09Q9.81-15.92 9.18-17.29 8.54-18.65 7.81-20.24 7.08-21.83 6.29-23.51 5.49-25.2 4.8-26.7 4.1-28.2 3.55-29.35 3-30.49 2.73-31.03L2.73-31.03Q2.61-31.4 2.61-31.79L2.61-31.79Q2.61-32.01 2.67-32.21 2.73-32.42 2.91-32.52ZM40.09 1.27L40.09 1.27Q36.64 1.27 34.04 0.15 31.44-0.98 29.68-2.84 27.93-4.71 27.05-7.14 26.17-9.57 26.17-12.18L26.17-12.18Q26.17-14.79 27.02-17.15 27.88-19.51 29.42-21.37 30.95-23.24 33.1-24.5 35.25-25.76 37.84-26.2L37.84-26.2Q38.23-26.22 38.23-26.37L38.23-26.37Q38.23-26.64 38.17-26.87 38.11-27.1 38.11-27.27L38.11-27.27Q38.11-27.54 38.21-27.64 38.3-27.73 38.43-27.73L38.43-27.73Q43.09-27.73 46.36-26.67 49.63-25.61 51.68-23.78 53.73-21.95 54.66-19.46 55.59-16.97 55.59-14.11L55.59-14.11Q55.59-10.47 54.37-7.62 53.15-4.76 51.04-2.78 48.92-0.81 46.1 0.23 43.28 1.27 40.09 1.27ZM35.57-12.45L35.57-12.45Q35.57-11.13 35.85-9.84 36.13-8.54 36.78-7.5 37.42-6.45 38.47-5.8 39.52-5.15 41.09-5.15L41.09-5.15Q42.21-5.2 43.05-5.65 43.89-6.1 44.5-6.82 45.11-7.54 45.52-8.45 45.92-9.35 46.15-10.31 46.38-11.28 46.48-12.21 46.58-13.13 46.58-13.89L46.58-13.89Q46.58-15.16 46.2-16.38 45.82-17.6 45.09-18.53 44.36-19.46 43.27-20.03 42.19-20.61 40.77-20.61L40.77-20.61Q39.3-20.61 38.3-19.74 37.3-18.87 36.7-17.6 36.11-16.33 35.84-14.93 35.57-13.53 35.57-12.45ZM86.81-27L84.52-3.03Q84.44-2.22 84.32-1.92 84.2-1.61 83.78-1.51L83.78-1.51Q81.71-0.93 79.45-0.33 77.19 0.27 75.07 1.25L75.07 1.25Q75 1.27 74.85 1.27L74.85 1.27Q74.65 1.27 74.62 1.17 74.58 1.07 74.58 0.95L74.58 0.95Q74.58 0.9 74.59 0.78 74.6 0.66 74.65 0.33 74.7 0 74.79-0.59 74.87-1.17 75.02-2.15L75.02-2.15Q72.29-0.37 70.17 0.45 68.06 1.27 66.43 1.27L66.43 1.27Q62.35 1.27 60.48-0.7 58.61-2.66 58.61-6.57L58.61-6.57Q58.61-7.28 58.64-8.02 58.66-8.76 58.78-9.55L58.78-9.55Q59.05-12.43 59.25-14.49 59.44-16.55 59.57-17.99 59.69-19.43 59.77-20.35 59.86-21.26 59.92-21.88 59.98-22.49 60.02-22.89 60.05-23.29 60.1-23.68L60.1-23.68Q60.2-24.46 60.29-24.78 60.37-25.1 60.83-25.2L60.83-25.2Q61.98-25.42 63.02-25.6 64.06-25.78 65.07-25.99 66.08-26.2 67.13-26.44 68.18-26.68 69.36-27.03L69.36-27.03Q69.4-27.03 69.45-27.04 69.5-27.05 69.55-27.05L69.55-27.05Q69.84-27.05 69.84-26.86L69.84-26.86 69.84-26.81Q69.75-25.98 69.67-25.24 69.6-24.51 69.53-23.74 69.45-22.97 69.37-22.09 69.28-21.22 69.16-20.06 69.04-18.9 68.87-17.38 68.7-15.87 68.45-13.87L68.45-13.87Q68.31-12.4 68.16-10.95 68.01-9.5 68.01-8.25L68.01-8.25Q68.01-7.57 68.11-6.99 68.21-6.42 68.46-6.02 68.72-5.62 69.14-5.4 69.55-5.18 70.21-5.18L70.21-5.18Q70.72-5.18 71.6-5.41 72.48-5.64 73.36-6.21 74.24-6.79 74.91-7.73 75.58-8.67 75.68-10.11L75.68-10.11Q75.85-12.52 75.98-14.15 76.12-15.77 76.22-16.88 76.31-17.99 76.39-18.75 76.46-19.51 76.52-20.2 76.58-20.9 76.63-21.69 76.68-22.49 76.73-23.68L76.73-23.68Q76.8-24.49 76.91-24.79 77.02-25.1 77.46-25.2L77.46-25.2Q79.68-25.63 82-26.09 84.32-26.54 86.54-27.25L86.54-27.25Q86.74-27.25 86.77-27.19 86.81-27.12 86.81-27L86.81-27ZM128.14-27.66L125.62-4.91Q125.6-4.81 125.6-4.72 125.6-4.64 125.6-4.57L125.6-4.57Q125.6-3.96 125.8-3.55 125.99-3.15 126.22-2.89 126.45-2.64 126.65-2.48 126.85-2.32 126.85-2.2L126.85-2.2Q126.85-1.86 126.11-1.56L126.11-1.56 119.55 1.25Q119.52 1.27 119.37 1.27L119.37 1.27Q119.18 1.27 118.98 0.93 118.79 0.59 118.61 0.06 118.42-0.46 118.26-1.06 118.11-1.66 117.98-2.17L117.98-2.17Q116.45-0.39 114.66 0.44 112.88 1.27 111.12 1.27L111.12 1.27Q109.07 1.27 107.12 0.37 105.17-0.54 103.65-2.21 102.14-3.88 101.22-6.25 100.31-8.62 100.31-11.57L100.31-11.57Q100.31-15.06 101.32-17.94 102.33-20.83 104.07-22.9 105.8-24.98 108.11-26.11 110.41-27.25 113-27.25L113-27.25Q114.83-27.25 116.47-26.5 118.11-25.76 119.57-24.58L119.57-24.58Q119.72-25.32 119.74-25.76 119.77-26.2 119.85-26.44 119.94-26.68 120.18-26.77 120.42-26.86 120.99-26.9L120.99-26.9Q122.74-27.15 124.49-27.36 126.24-27.56 128.14-27.66L128.14-27.66ZM117.3-6.88L118.32-14.11Q118.57-15.5 118.65-16.74 118.74-17.97 118.79-18.99L118.79-18.99Q118.4-19.29 117.95-19.6 117.49-19.92 116.97-20.2 116.45-20.48 115.87-20.65 115.3-20.83 114.66-20.83L114.66-20.83Q113.34-20.83 112.45-19.97 111.56-19.12 111.01-17.87 110.46-16.63 110.23-15.23 110-13.84 110-12.77L110-12.77Q110-8.91 111.01-7.12 112.03-5.32 113.83-5.32L113.83-5.32Q114.57-5.32 115.47-5.74 116.37-6.15 117.3-6.88L117.3-6.88ZM152.65-27.44L151.13-19.87Q150.62-19.92 149.99-19.98 149.35-20.04 148.64-20.04L148.64-20.04Q147.57-20.04 146.46-19.86 145.35-19.68 144.4-19.14 143.44-18.6 142.76-17.66 142.08-16.72 141.88-15.23L141.88-15.23Q141.71-13.43 141.6-12.27 141.49-11.11 141.44-10.36 141.39-9.62 141.36-9.17 141.32-8.72 141.3-8.33L141.3-8.33Q141.3-8.23 141.26-7.79 141.22-7.35 141.15-6.76 141.08-6.18 141.02-5.49 140.95-4.81 140.88-4.22 140.81-3.64 140.77-3.2 140.73-2.76 140.73-2.66L140.73-2.66Q140.73-2.47 140.75-2.33 140.76-2.2 140.76-2.08L140.76-2.08Q140.76-1.88 140.58-1.75 140.39-1.61 139.76-1.44L139.76-1.44 133.29 0.88Q133.02 0.98 132.58 1.12 132.14 1.27 131.73 1.27L131.73 1.27Q131.38 1.27 131.13 1.1 130.87 0.93 130.87 0.51L130.87 0.51 132.97-23.68Q133.04-24.49 133.15-24.79 133.26-25.1 133.7-25.2L133.7-25.2Q135.93-25.63 138.29-26.09 140.66-26.54 142.88-27.25L142.88-27.25Q143.08-27.25 143.11-27.19 143.15-27.12 143.15-27L143.15-27Q143.15-26.95 143.14-26.86 143.13-26.76 143.07-26.42 143.01-26.07 142.9-25.38 142.79-24.68 142.59-23.44L142.59-23.44Q143.71-24.32 145.07-25.05 146.42-25.78 147.79-26.31 149.16-26.83 150.43-27.14 151.7-27.44 152.65-27.44L152.65-27.44ZM167.27-27.25L167.27-27.25Q169.59-27.25 171.48-26.38 173.37-25.51 174.73-24.13 176.08-22.75 176.82-21.04 177.55-19.34 177.55-17.63L177.55-17.63Q177.55-16.11 176.62-14.59 175.69-13.06 174.02-11.84 172.35-10.62 170-9.86 167.66-9.11 164.85-9.11L164.85-9.11Q163.39-9.11 161.78-9.4L161.78-9.4Q161.87-8.35 162.39-7.59 162.9-6.84 163.68-6.35 164.46-5.86 165.45-5.63 166.44-5.4 167.49-5.4L167.49-5.4Q168.66-5.4 169.75-5.6 170.83-5.81 171.84-6.15 172.84-6.49 173.76-6.91 174.69-7.32 175.52-7.74L175.52-7.74Q175.74-7.79 175.9-7.82 176.06-7.86 176.21-7.86L176.21-7.86Q176.21-7.86 176.19-7.47 176.18-7.08 176.18-6.37 176.18-5.66 176.17-4.66 176.16-3.66 176.13-2.44L176.13-2.44Q176.21-2.32 176.23-2.2 176.25-2.08 176.25-2L176.25-2Q176.25-1.71 175.72-1.37 175.18-1.03 174.31-0.66 173.45-0.29 172.34 0.05 171.23 0.39 170.08 0.67 168.93 0.95 167.86 1.11 166.78 1.27 165.98 1.27L165.98 1.27Q163.34 1.27 160.86 0.35 158.38-0.56 156.47-2.27 154.55-3.98 153.4-6.42 152.26-8.86 152.26-11.91L152.26-11.91Q152.26-15.11 153.35-17.91 154.45-20.7 156.44-22.78 158.43-24.85 161.19-26.05 163.95-27.25 167.27-27.25ZM166.98-20.75L166.98-20.75Q165.98-20.75 165.13-20.32 164.29-19.9 163.6-19.1 162.9-18.31 162.39-17.2 161.87-16.09 161.56-14.75L161.56-14.75Q164.07-15.19 165.73-15.67 167.39-16.16 168.39-16.66 169.39-17.16 169.81-17.66 170.22-18.16 170.22-18.63L170.22-18.63Q170.22-19.07 169.89-19.46 169.57-19.85 169.08-20.14 168.59-20.43 168.01-20.59 167.44-20.75 166.98-20.75ZM221.46-17.5L226.27-33.13Q226.4-33.57 226.54-33.85 226.69-34.13 227.2-34.25L227.2-34.25 234.4-35.91Q234.45-35.91 234.53-35.94 234.6-35.96 234.65-35.96L234.65-35.96Q234.99-35.96 235.12-35.67 235.26-35.38 235.26-35.11L235.26-35.11Q235.26-35.06 235.25-34.91 235.23-34.77 235.21-34.72L235.21-34.72 225.1-4Q224.71-3 224.46-2.38 224.2-1.76 223.94-1.35 223.69-0.95 223.36-0.68 223.03-0.42 222.48-0.15 221.93 0.12 221.1 0.48 220.27 0.83 219 1.44L219 1.44Q218.56 1.66 218.31 1.66L218.31 1.66Q217.92 1.66 217.73 1.37 217.53 1.07 217.41 0.71L217.41 0.71 213.24-14.16 208.01-3.39Q207.89-3.1 207.45-2.61 207.01-2.12 206.46-1.61 205.91-1.1 205.36-0.62 204.81-0.15 204.47 0.15L204.47 0.15Q204.15 0.42 203.8 0.68 203.45 0.95 203.08 1.17 202.71 1.39 202.38 1.53 202.06 1.66 201.76 1.66L201.76 1.66Q201.13 1.66 200.93 0.95L200.93 0.95 191.46-32.45Q191.41-32.64 191.35-32.84 191.29-33.03 191.29-33.2L191.29-33.2Q191.29-33.81 191.58-34.23 191.87-34.64 192.61-34.94 193.34-35.23 194.56-35.41 195.78-35.6 197.66-35.72L197.66-35.72Q198.54-35.84 199.14-35.89 199.74-35.94 200.15-35.94L200.15-35.94Q200.86-35.94 201.08-35.72 201.3-35.5 201.47-34.99L201.47-34.99 206.5-15.63 210.67-22.8 208.99-30.15Q208.84-30.74 208.87-31.03L208.87-31.03Q208.87-31.59 209.16-31.93 209.45-32.28 210.14-32.5 210.82-32.71 211.93-32.89 213.04-33.06 214.65-33.28L214.65-33.28Q215.36-33.37 215.87-33.42 216.39-33.47 216.75-33.47L216.75-33.47Q217.48-33.47 217.75-33.25 218.02-33.03 218.14-32.54L218.14-32.54 221.46-17.5ZM236.09-10.35L236.09-10.35Q236.4-13.7 236.72-16.97 237.04-20.24 237.28-23.68L237.28-23.68Q237.33-24.49 237.44-24.79 237.55-25.1 237.99-25.2L237.99-25.2Q240.07-25.61 242.34-26.06 244.61-26.51 246.73-27.22L246.73-27.22Q246.8-27.25 246.95-27.25L246.95-27.25Q247.22-27.25 247.22-27.05L247.22-27.05 245.02-3.27Q244.95-2.47 244.85-2.16 244.75-1.86 244.31-1.76L244.31-1.76Q242.24-1.12 240.11-0.34 237.99 0.44 235.62 1.25L235.62 1.25Q235.55 1.27 235.4 1.27L235.4 1.27Q235.13 1.27 235.13 1.03L235.13 1.03Q235.13 1 235.18 0.37 235.23-0.27 235.32-1.27 235.4-2.27 235.5-3.52 235.6-4.76 235.71-6.01 235.82-7.25 235.92-8.4 236.01-9.55 236.09-10.35ZM237.92-29.83L237.92-29.83Q237.99-30.88 238.03-31.45 238.06-32.01 238.09-32.29 238.11-32.57 238.11-32.64 238.11-32.71 238.12-32.75 238.14-32.79 238.15-32.9 238.16-33.01 238.19-33.36 238.21-33.72 238.26-34.4 238.31-35.08 238.41-36.28L238.41-36.28Q238.45-37.08 238.56-37.39 238.67-37.7 239.11-37.79L239.11-37.79Q241.19-38.21 243.46-38.66 245.73-39.11 247.85-39.82L247.85-39.82Q247.93-39.84 248.07-39.84L248.07-39.84Q248.15-39.7 248.27-39.65L248.27-39.65 248.34-39.6 247.8-32.91Q247.73-32.1 247.62-31.79 247.51-31.47 247.1-31.4L247.1-31.4Q245.02-31.01 242.9-30.54 240.77-30.08 238.41-29.61L238.41-29.61Q238.33-29.59 238.19-29.59L238.19-29.59Q237.92-29.59 237.92-29.83ZM276.59-0.78L270.65 0.88Q270.39 0.95 269.95 1.11 269.51 1.27 269.09 1.27L269.09 1.27Q268.75 1.27 268.49 1.1 268.24 0.93 268.24 0.51L268.24 0.51 268.24 0.37Q268.38-0.95 268.48-1.87 268.58-2.78 268.66-3.53 268.75-4.27 268.81-5.02 268.87-5.76 268.97-6.75 269.07-7.74 269.2-9.09 269.34-10.45 269.53-12.48L269.53-12.48Q269.65-13.72 269.75-15.01 269.85-16.31 269.85-17.41L269.85-17.41Q269.85-18.14 269.74-18.76 269.63-19.38 269.35-19.84 269.07-20.29 268.58-20.53 268.09-20.78 267.33-20.78L267.33-20.78Q266.77-20.78 265.78-20.53 264.79-20.29 263.82-19.73 262.84-19.17 262.08-18.25 261.33-17.33 261.23-15.99L261.23-15.99Q261.08-14.18 260.96-12.9 260.84-11.62 260.74-10.73 260.64-9.84 260.58-9.28 260.52-8.72 260.5-8.33L260.5-8.33Q260.47-8.23 260.42-7.79 260.38-7.35 260.31-6.74 260.25-6.13 260.19-5.44 260.13-4.76 260.07-4.15 260.01-3.54 259.97-3.1 259.94-2.66 259.94-2.56L259.94-2.56Q259.94-2.37 259.95-2.23 259.96-2.1 259.96-1.98L259.96-1.98Q259.96-1.78 259.78-1.65 259.59-1.51 258.96-1.34L258.96-1.34 252.49 0.88Q252.22 0.98 251.78 1.12 251.34 1.27 250.93 1.27L250.93 1.27Q250.59 1.27 250.33 1.1 250.07 0.93 250.07 0.51L250.07 0.51 252.29-24.44Q252.37-25.24 252.48-25.55 252.59-25.85 253.03-25.95L253.03-25.95Q255.25-26.39 257.59-26.84 259.94-27.29 262.16-28L262.16-28Q262.35-28 262.39-27.94 262.43-27.88 262.43-27.76L262.43-27.76Q262.43-27.71 262.41-27.61 262.4-27.51 262.34-27.17 262.28-26.83 262.17-26.14 262.06-25.44 261.86-24.19L261.86-24.19Q263.55-25.17 265.03-25.77 266.5-26.37 267.81-26.7 269.12-27.03 270.26-27.14 271.41-27.25 272.41-27.25L272.41-27.25Q275.85-27.25 277.42-25.16 278.98-23.07 278.98-18.9L278.98-18.9Q278.98-18.31 278.95-17.69 278.93-17.07 278.86-16.41L278.86-16.41 277.73-5.91Q277.61-4.88 277.59-4.02 277.56-3.15 277.56-2L277.56-2Q277.56-1.81 277.58-1.67 277.59-1.54 277.59-1.44L277.59-1.44Q277.59-1.22 277.4-1.1 277.22-0.98 276.59-0.78L276.59-0.78ZM308.86-0.78L302.93 0.88Q302.66 0.95 302.22 1.11 301.78 1.27 301.36 1.27L301.36 1.27Q301.02 1.27 300.77 1.1 300.51 0.93 300.51 0.51L300.51 0.51 300.51 0.37Q300.66-0.95 300.75-1.87 300.85-2.78 300.94-3.53 301.02-4.27 301.08-5.02 301.14-5.76 301.24-6.75 301.34-7.74 301.47-9.09 301.61-10.45 301.8-12.48L301.8-12.48Q301.93-13.72 302.02-15.01 302.12-16.31 302.12-17.41L302.12-17.41Q302.12-18.14 302.01-18.76 301.9-19.38 301.62-19.84 301.34-20.29 300.85-20.53 300.36-20.78 299.61-20.78L299.61-20.78Q299.04-20.78 298.06-20.53 297.07-20.29 296.09-19.73 295.11-19.17 294.36-18.25 293.6-17.33 293.5-15.99L293.5-15.99Q293.36-14.18 293.23-12.9 293.11-11.62 293.01-10.73 292.92-9.84 292.86-9.28 292.79-8.72 292.77-8.33L292.77-8.33Q292.75-8.23 292.7-7.79 292.65-7.35 292.59-6.74 292.53-6.13 292.47-5.44 292.4-4.76 292.34-4.15 292.28-3.54 292.25-3.1 292.21-2.66 292.21-2.56L292.21-2.56Q292.21-2.37 292.22-2.23 292.23-2.1 292.23-1.98L292.23-1.98Q292.23-1.78 292.05-1.65 291.87-1.51 291.23-1.34L291.23-1.34 284.76 0.88Q284.49 0.98 284.05 1.12 283.62 1.27 283.2 1.27L283.2 1.27Q282.86 1.27 282.6 1.1 282.35 0.93 282.35 0.51L282.35 0.51 284.57-24.44Q284.64-25.24 284.75-25.55 284.86-25.85 285.3-25.95L285.3-25.95Q287.52-26.39 289.87-26.84 292.21-27.29 294.43-28L294.43-28Q294.63-28 294.66-27.94 294.7-27.88 294.7-27.76L294.7-27.76Q294.7-27.71 294.69-27.61 294.67-27.51 294.61-27.17 294.55-26.83 294.44-26.14 294.33-25.44 294.14-24.19L294.14-24.19Q295.82-25.17 297.3-25.77 298.78-26.37 300.08-26.7 301.39-27.03 302.54-27.14 303.68-27.25 304.68-27.25L304.68-27.25Q308.13-27.25 309.69-25.16 311.25-23.07 311.25-18.9L311.25-18.9Q311.25-18.31 311.23-17.69 311.2-17.07 311.13-16.41L311.13-16.41 310.01-5.91Q309.88-4.88 309.86-4.02 309.84-3.15 309.84-2L309.84-2Q309.84-1.81 309.85-1.67 309.86-1.54 309.86-1.44L309.86-1.44Q309.86-1.22 309.68-1.1 309.49-0.98 308.86-0.78L308.86-0.78ZM329.49-27.25L329.49-27.25Q331.81-27.25 333.7-26.38 335.59-25.51 336.95-24.13 338.3-22.75 339.03-21.04 339.76-19.34 339.76-17.63L339.76-17.63Q339.76-16.11 338.84-14.59 337.91-13.06 336.24-11.84 334.56-10.62 332.22-9.86 329.88-9.11 327.07-9.11L327.07-9.11Q325.6-9.11 323.99-9.4L323.99-9.4Q324.09-8.35 324.6-7.59 325.12-6.84 325.9-6.35 326.68-5.86 327.67-5.63 328.66-5.4 329.71-5.4L329.71-5.4Q330.88-5.4 331.96-5.6 333.05-5.81 334.05-6.15 335.05-6.49 335.98-6.91 336.91-7.32 337.74-7.74L337.74-7.74Q337.96-7.79 338.12-7.82 338.28-7.86 338.42-7.86L338.42-7.86Q338.42-7.86 338.41-7.47 338.4-7.08 338.4-6.37 338.4-5.66 338.39-4.66 338.37-3.66 338.35-2.44L338.35-2.44Q338.42-2.32 338.45-2.2 338.47-2.08 338.47-2L338.47-2Q338.47-1.71 337.93-1.37 337.4-1.03 336.53-0.66 335.66-0.29 334.55 0.05 333.44 0.39 332.29 0.67 331.15 0.95 330.07 1.11 329 1.27 328.19 1.27L328.19 1.27Q325.56 1.27 323.08 0.35 320.6-0.56 318.68-2.27 316.77-3.98 315.62-6.42 314.47-8.86 314.47-11.91L314.47-11.91Q314.47-15.11 315.57-17.91 316.67-20.7 318.66-22.78 320.65-24.85 323.41-26.05 326.17-27.25 329.49-27.25ZM329.19-20.75L329.19-20.75Q328.19-20.75 327.35-20.32 326.51-19.9 325.81-19.1 325.12-18.31 324.6-17.2 324.09-16.09 323.77-14.75L323.77-14.75Q326.29-15.19 327.95-15.67 329.61-16.16 330.61-16.66 331.61-17.16 332.03-17.66 332.44-18.16 332.44-18.63L332.44-18.63Q332.44-19.07 332.11-19.46 331.78-19.85 331.29-20.14 330.8-20.43 330.23-20.59 329.66-20.75 329.19-20.75ZM364.3-27.44L362.78-19.87Q362.27-19.92 361.64-19.98 361-20.04 360.29-20.04L360.29-20.04Q359.22-20.04 358.11-19.86 357-19.68 356.05-19.14 355.09-18.6 354.41-17.66 353.73-16.72 353.53-15.23L353.53-15.23Q353.36-13.43 353.25-12.27 353.14-11.11 353.09-10.36 353.04-9.62 353.01-9.17 352.97-8.72 352.95-8.33L352.95-8.33Q352.95-8.23 352.91-7.79 352.87-7.35 352.8-6.76 352.73-6.18 352.67-5.49 352.6-4.81 352.53-4.22 352.46-3.64 352.42-3.2 352.38-2.76 352.38-2.66L352.38-2.66Q352.38-2.47 352.4-2.33 352.41-2.2 352.41-2.08L352.41-2.08Q352.41-1.88 352.23-1.75 352.04-1.61 351.41-1.44L351.41-1.44 344.94 0.88Q344.67 0.98 344.23 1.12 343.79 1.27 343.38 1.27L343.38 1.27Q343.03 1.27 342.78 1.1 342.52 0.93 342.52 0.51L342.52 0.51 344.62-23.68Q344.69-24.49 344.8-24.79 344.91-25.1 345.35-25.2L345.35-25.2Q347.57-25.63 349.94-26.09 352.31-26.54 354.53-27.25L354.53-27.25Q354.73-27.25 354.76-27.19 354.8-27.12 354.8-27L354.8-27Q354.8-26.95 354.79-26.86 354.78-26.76 354.72-26.42 354.66-26.07 354.55-25.38 354.44-24.68 354.24-23.44L354.24-23.44Q355.36-24.32 356.72-25.05 358.07-25.78 359.44-26.31 360.81-26.83 362.08-27.14 363.35-27.44 364.3-27.44L364.3-27.44Z" opacity="1" transform="matrix(1,0,0,1,0,0)" fill="#001f3f" class="undefined-text-1" data-fill-palette-color="secondary" id="text-1"></path></svg></g></svg></g></svg></g></svg></g><g><svg viewBox="0 0 189.42827845249718 189.4282784524972" height="189.4282784524972" width="189.42827845249718"><g><svg></svg></g><g id="icon-0"><svg viewBox="0 0 189.42827845249718 189.4282784524972" height="189.4282784524972" width="189.42827845249718"><g><path xmlns="http://www.w3.org/2000/svg" d="M56.828 189.428c-31.386 0-56.828-25.443-56.828-56.828v-75.772c0-31.386 25.443-56.828 56.828-56.828h75.772c31.386 0 56.828 25.443 56.828 56.828v75.772c0 31.386-25.443 56.828-56.828 56.828z" fill="#001f3f" fill-rule="nonzero" stroke="none" stroke-width="1" stroke-linecap="butt" stroke-linejoin="miter" stroke-miterlimit="10" stroke-dasharray="" stroke-dashoffset="0" font-family="none" font-weight="none" font-size="none" text-anchor="none" style="mix-blend-mode: normal" data-fill-palette-color="accent"></path></g><g transform="matrix(1,0,0,1,56.8272784262486,56.82622337984725)"><svg viewBox="0 0 75.77372159999999 75.77583169280271" height="75.77583169280271" width="75.77372159999999"><g><svg xmlns="http://www.w3.org/2000/svg" viewBox="2 1.998328685760498 60 60.001670837402344" x="0" y="0" height="75.77583169280271" width="75.77372159999999" class="icon-a-0" data-fill-palette-color="quaternary" id="a-0"><g fill="#ffffff" data-fill-palette-color="quaternary"><path d="M8 27a1 1 0 0 0-1 1V47a1 1 0 0 0 1 1H56a1 1 0 0 0 1-1V28a1 1 0 0 0-1-1Zm1 2H23V46H9Zm16 0H39V46H25ZM55 46H41V29H55Z" fill="#ffffff" data-fill-palette-color="quaternary"></path><path d="M61 16H57.414l1.293-1.293A1 1 0 0 0 58 13H53.618L51.4 8.553a1.042 1.042 0 0 0-1.79 0L47.382 13H43c-0.035 0-0.067 0.012-0.1 0.015l1.682-1.2A1 1 0 0 0 44 10H35.693L32.937 2.649a1 1 0 0 0-1.874 0L28.307 10H20a1 1 0 0 0-0.581 1.814l1.682 1.2c-0.034 0-0.066-0.015-0.1-0.015H16.618L14.4 8.553a1.042 1.042 0 0 0-1.79 0L10.382 13H6a1 1 0 0 0-0.707 1.707L6.586 16H3a1 1 0 0 0-1 1V61a1 1 0 0 0 1 1H61a1 1 0 0 0 1-1V17A1 1 0 0 0 61 16ZM48 15a1 1 0 0 0 0.9-0.553l1.6-3.211 1.6 3.211A1 1 0 0 0 53 15h2.586l-2.293 2.293a1 1 0 0 0-0.263 0.95l0.5 2.01-2.627-1.167a1 1 0 0 0-0.812 0l-2.627 1.167 0.5-2.01a1 1 0 0 0-0.263-0.95L45.414 15Zm-5.707-0.293L43.586 16H38.72l3.371-2.407c0 0.008-0.011 0.015-0.015 0.024A1 1 0 0 0 42.293 14.707ZM29 12a1 1 0 0 0 0.937-0.649L32 5.848l2.063 5.5A1 1 0 0 0 35 12h5.879l-4.46 3.186a1 1 0 0 0-0.389 1.057l1.431 5.726L32.5 19.132a1 1 0 0 0-0.992 0l-4.965 2.837 1.431-5.726a1 1 0 0 0-0.389-1.057L23.121 12Zm-7.293 2.707a1 1 0 0 0 0.217-1.09c0-0.009-0.011-0.016-0.015-0.024L25.28 16H20.414ZM11 15a1 1 0 0 0 0.895-0.553L13.5 11.236l1.605 3.211A1 1 0 0 0 16 15h2.586l-2.293 2.293a1 1 0 0 0-0.263 0.95l0.5 2.01-2.627-1.167a1 1 0 0 0-0.812 0l-2.627 1.167 0.5-2.01a1 1 0 0 0-0.263-0.95L8.414 15ZM60 60H4V18H8.586l0.307 0.307-0.863 3.45a1 1 0 0 0 1.376 1.157l4.094-1.82 4.094 1.82a1 1 0 0 0 1.376-1.157l-0.863-3.45L18.414 18h7.055L24.03 23.757A1 1 0 0 0 25.5 24.868L32 21.152l6.5 3.716A0.988 0.988 0 0 0 39 25a1 1 0 0 0 0.97-1.243L38.531 18h7.055l0.307 0.307-0.863 3.45a1 1 0 0 0 1.376 1.157l4.094-1.82 4.094 1.82a1 1 0 0 0 1.376-1.157l-0.863-3.45L55.414 18H60Z" fill="#ffffff" data-fill-palette-color="quaternary"></path><path d="M20 31H12a1 1 0 0 0-1 1v2a1 1 0 0 0 2 0V33h5.013A18.183 18.183 0 0 0 15 43a1 1 0 0 0 2 0 16.163 16.163 0 0 1 3.529-10.061l0.252-0.314A1 1 0 0 0 20 31Z" fill="#ffffff" data-fill-palette-color="quaternary"></path><path d="M36 31H28a1 1 0 0 0-1 1v2a1 1 0 0 0 2 0V33h5.013A18.183 18.183 0 0 0 31 43a1 1 0 0 0 2 0 16.163 16.163 0 0 1 3.529-10.061l0.252-0.314A1 1 0 0 0 36 31Z" fill="#ffffff" data-fill-palette-color="quaternary"></path><path d="M44 35a1 1 0 0 0 1-1V33h5.013A18.183 18.183 0 0 0 47 43a1 1 0 0 0 2 0 16.163 16.163 0 0 1 3.529-10.061l0.252-0.314A1 1 0 0 0 52 31H44a1 1 0 0 0-1 1v2A1 1 0 0 0 44 35Z" fill="#ffffff" data-fill-palette-color="quaternary"></path><path d="M12 50a4 4 0 1 0 4 4A4 4 0 0 0 12 50Zm0 6a2 2 0 1 1 2-2A2 2 0 0 1 12 56Z" fill="#ffffff" data-fill-palette-color="quaternary"></path><path d="M22 50a4 4 0 1 0 4 4A4 4 0 0 0 22 50Zm0 6a2 2 0 1 1 2-2A2 2 0 0 1 22 56Z" fill="#ffffff" data-fill-palette-color="quaternary"></path><path d="M32 50a4 4 0 1 0 4 4A4 4 0 0 0 32 50Zm0 6a2 2 0 1 1 2-2A2 2 0 0 1 32 56Z" fill="#ffffff" data-fill-palette-color="quaternary"></path><path d="M42 50a4 4 0 1 0 4 4A4 4 0 0 0 42 50Zm0 6a2 2 0 1 1 2-2A2 2 0 0 1 42 56Z" fill="#ffffff" data-fill-palette-color="quaternary"></path><path d="M52 50a4 4 0 1 0 4 4A4 4 0 0 0 52 50Zm0 6a2 2 0 1 1 2-2A2 2 0 0 1 52 56Z" fill="#ffffff" data-fill-palette-color="quaternary"></path></g></svg></g></svg></g></svg></g></svg></g></svg></g><defs></defs></svg><rect width="395.52" height="123.68231919563476" fill="none" stroke="none" visibility="hidden"></rect></g></svg></g></svg>